<mxfile host="app.diagrams.net" modified="2023-09-22T07:50:40.494Z" agent="Mozilla/5.0 (Macintosh; Intel Mac OS X 10_15_7) AppleWebKit/537.36 (KHTML, like Gecko) Chrome/116.0.0.0 Safari/537.36" etag="omzBGHC7yivN2MltCETE" version="21.7.5" type="device" pages="2">
  <diagram id="C5RBs43oDa-KdzZeNtuy" name="Page-1">
    <mxGraphModel dx="1968" dy="2858" grid="1" gridSize="10" guides="1" tooltips="1" connect="1" arrows="1" fold="1" page="1" pageScale="1" pageWidth="1169" pageHeight="1654" math="0" shadow="0">
      <root>
        <mxCell id="WIyWlLk6GJQsqaUBKTNV-0" />
        <mxCell id="WIyWlLk6GJQsqaUBKTNV-1" parent="WIyWlLk6GJQsqaUBKTNV-0" />
        <mxCell id="s32Tm8xTcJiPgJSjNKc--2" value="" style="edgeStyle=orthogonalEdgeStyle;rounded=0;orthogonalLoop=1;jettySize=auto;html=1;" parent="WIyWlLk6GJQsqaUBKTNV-1" source="s32Tm8xTcJiPgJSjNKc--0" target="s32Tm8xTcJiPgJSjNKc--1" edge="1">
          <mxGeometry relative="1" as="geometry" />
        </mxCell>
        <mxCell id="s32Tm8xTcJiPgJSjNKc--0" value="MULAI" style="strokeWidth=2;html=1;shape=mxgraph.flowchart.terminator;whiteSpace=wrap;" parent="WIyWlLk6GJQsqaUBKTNV-1" vertex="1">
          <mxGeometry x="115" y="-1380" width="90" height="40" as="geometry" />
        </mxCell>
        <mxCell id="s32Tm8xTcJiPgJSjNKc--4" value="" style="edgeStyle=orthogonalEdgeStyle;rounded=0;orthogonalLoop=1;jettySize=auto;html=1;" parent="WIyWlLk6GJQsqaUBKTNV-1" source="s32Tm8xTcJiPgJSjNKc--1" target="s32Tm8xTcJiPgJSjNKc--3" edge="1">
          <mxGeometry relative="1" as="geometry" />
        </mxCell>
        <mxCell id="s32Tm8xTcJiPgJSjNKc--1" value="&lt;meta charset=&quot;utf-8&quot;&gt;&lt;span style=&quot;color: rgb(0, 0, 0); font-family: Helvetica; font-size: 12px; font-style: normal; font-variant-ligatures: normal; font-variant-caps: normal; font-weight: 400; letter-spacing: normal; orphans: 2; text-align: center; text-indent: 0px; text-transform: none; widows: 2; word-spacing: 0px; -webkit-text-stroke-width: 0px; background-color: rgb(251, 251, 251); text-decoration-thickness: initial; text-decoration-style: initial; text-decoration-color: initial; float: none; display: inline !important;&quot;&gt;Permasalahan Aziz dalam mengambil mata kuliah&lt;/span&gt;" style="whiteSpace=wrap;html=1;strokeWidth=2;" parent="WIyWlLk6GJQsqaUBKTNV-1" vertex="1">
          <mxGeometry x="100" y="-1296" width="120" height="60" as="geometry" />
        </mxCell>
        <mxCell id="s32Tm8xTcJiPgJSjNKc--6" value="" style="edgeStyle=orthogonalEdgeStyle;rounded=0;orthogonalLoop=1;jettySize=auto;html=1;" parent="WIyWlLk6GJQsqaUBKTNV-1" source="s32Tm8xTcJiPgJSjNKc--3" target="s32Tm8xTcJiPgJSjNKc--5" edge="1">
          <mxGeometry relative="1" as="geometry" />
        </mxCell>
        <mxCell id="s32Tm8xTcJiPgJSjNKc--3" value="Aziz mempunyai&lt;br style=&quot;border-color: var(--border-color);&quot;&gt;nilai IPK 2.98" style="shape=parallelogram;perimeter=parallelogramPerimeter;whiteSpace=wrap;html=1;fixedSize=1;strokeWidth=2;" parent="WIyWlLk6GJQsqaUBKTNV-1" vertex="1">
          <mxGeometry x="100" y="-1176" width="120" height="60" as="geometry" />
        </mxCell>
        <mxCell id="s32Tm8xTcJiPgJSjNKc--8" value="" style="edgeStyle=orthogonalEdgeStyle;rounded=0;orthogonalLoop=1;jettySize=auto;html=1;" parent="WIyWlLk6GJQsqaUBKTNV-1" source="s32Tm8xTcJiPgJSjNKc--5" target="s32Tm8xTcJiPgJSjNKc--7" edge="1">
          <mxGeometry relative="1" as="geometry" />
        </mxCell>
        <mxCell id="s32Tm8xTcJiPgJSjNKc--5" value="&amp;nbsp;IPK aziz &amp;lt; 3.0" style="rhombus;whiteSpace=wrap;html=1;strokeWidth=2;" parent="WIyWlLk6GJQsqaUBKTNV-1" vertex="1">
          <mxGeometry x="100" y="-1056" width="120" height="100" as="geometry" />
        </mxCell>
        <mxCell id="s32Tm8xTcJiPgJSjNKc--10" value="" style="edgeStyle=orthogonalEdgeStyle;rounded=0;orthogonalLoop=1;jettySize=auto;html=1;" parent="WIyWlLk6GJQsqaUBKTNV-1" source="s32Tm8xTcJiPgJSjNKc--7" target="s32Tm8xTcJiPgJSjNKc--9" edge="1">
          <mxGeometry relative="1" as="geometry" />
        </mxCell>
        <mxCell id="s32Tm8xTcJiPgJSjNKc--7" value="Dapat Mengambil 20 Sks" style="whiteSpace=wrap;html=1;strokeWidth=2;" parent="WIyWlLk6GJQsqaUBKTNV-1" vertex="1">
          <mxGeometry x="100" y="-906" width="120" height="60" as="geometry" />
        </mxCell>
        <mxCell id="s32Tm8xTcJiPgJSjNKc--12" value="" style="edgeStyle=orthogonalEdgeStyle;rounded=0;orthogonalLoop=1;jettySize=auto;html=1;" parent="WIyWlLk6GJQsqaUBKTNV-1" source="s32Tm8xTcJiPgJSjNKc--9" target="s32Tm8xTcJiPgJSjNKc--11" edge="1">
          <mxGeometry relative="1" as="geometry" />
        </mxCell>
        <mxCell id="s32Tm8xTcJiPgJSjNKc--9" value="Apakah akan mengambil matkul yang di ulang?" style="rhombus;whiteSpace=wrap;html=1;strokeWidth=2;" parent="WIyWlLk6GJQsqaUBKTNV-1" vertex="1">
          <mxGeometry x="105" y="-776" width="110" height="100" as="geometry" />
        </mxCell>
        <mxCell id="s32Tm8xTcJiPgJSjNKc--14" value="" style="edgeStyle=orthogonalEdgeStyle;rounded=0;orthogonalLoop=1;jettySize=auto;html=1;" parent="WIyWlLk6GJQsqaUBKTNV-1" source="s32Tm8xTcJiPgJSjNKc--11" target="s32Tm8xTcJiPgJSjNKc--13" edge="1">
          <mxGeometry relative="1" as="geometry" />
        </mxCell>
        <mxCell id="s32Tm8xTcJiPgJSjNKc--11" value="Aziz mengambil mata kuliah yg di ulang" style="whiteSpace=wrap;html=1;strokeWidth=2;" parent="WIyWlLk6GJQsqaUBKTNV-1" vertex="1">
          <mxGeometry x="100" y="-616" width="120" height="60" as="geometry" />
        </mxCell>
        <mxCell id="s32Tm8xTcJiPgJSjNKc--17" value="" style="edgeStyle=orthogonalEdgeStyle;rounded=0;orthogonalLoop=1;jettySize=auto;html=1;" parent="WIyWlLk6GJQsqaUBKTNV-1" source="s32Tm8xTcJiPgJSjNKc--13" edge="1">
          <mxGeometry relative="1" as="geometry">
            <mxPoint x="160" y="-366" as="targetPoint" />
          </mxGeometry>
        </mxCell>
        <mxCell id="s32Tm8xTcJiPgJSjNKc--13" value="Mengambil matkul wajib" style="whiteSpace=wrap;html=1;strokeWidth=2;" parent="WIyWlLk6GJQsqaUBKTNV-1" vertex="1">
          <mxGeometry x="100" y="-486" width="120" height="60" as="geometry" />
        </mxCell>
        <mxCell id="s32Tm8xTcJiPgJSjNKc--15" value="MULAI" style="strokeWidth=2;html=1;shape=mxgraph.flowchart.terminator;whiteSpace=wrap;" parent="WIyWlLk6GJQsqaUBKTNV-1" vertex="1">
          <mxGeometry x="115" y="-1380" width="90" height="40" as="geometry" />
        </mxCell>
        <mxCell id="s32Tm8xTcJiPgJSjNKc--16" value="END" style="strokeWidth=2;html=1;shape=mxgraph.flowchart.terminator;whiteSpace=wrap;" parent="WIyWlLk6GJQsqaUBKTNV-1" vertex="1">
          <mxGeometry x="115" y="-365" width="90" height="40" as="geometry" />
        </mxCell>
        <mxCell id="s32Tm8xTcJiPgJSjNKc--18" value="Dapat Mengambil 24 Sks" style="whiteSpace=wrap;html=1;strokeWidth=2;" parent="WIyWlLk6GJQsqaUBKTNV-1" vertex="1">
          <mxGeometry x="430" y="-906" width="120" height="60" as="geometry" />
        </mxCell>
        <mxCell id="s32Tm8xTcJiPgJSjNKc--42" value="" style="endArrow=none;html=1;rounded=0;" parent="WIyWlLk6GJQsqaUBKTNV-1" edge="1">
          <mxGeometry width="50" height="50" relative="1" as="geometry">
            <mxPoint x="220" y="-1006" as="sourcePoint" />
            <mxPoint x="480" y="-1006" as="targetPoint" />
          </mxGeometry>
        </mxCell>
        <mxCell id="s32Tm8xTcJiPgJSjNKc--43" value="" style="endArrow=classic;html=1;rounded=0;" parent="WIyWlLk6GJQsqaUBKTNV-1" edge="1">
          <mxGeometry width="50" height="50" relative="1" as="geometry">
            <mxPoint x="480" y="-1006" as="sourcePoint" />
            <mxPoint x="480" y="-906" as="targetPoint" />
          </mxGeometry>
        </mxCell>
        <mxCell id="s32Tm8xTcJiPgJSjNKc--44" value="" style="endArrow=none;html=1;rounded=0;" parent="WIyWlLk6GJQsqaUBKTNV-1" edge="1">
          <mxGeometry width="50" height="50" relative="1" as="geometry">
            <mxPoint x="215" y="-726" as="sourcePoint" />
            <mxPoint x="480" y="-726" as="targetPoint" />
          </mxGeometry>
        </mxCell>
        <mxCell id="s32Tm8xTcJiPgJSjNKc--45" value="" style="endArrow=none;html=1;rounded=0;entryX=0.5;entryY=1;entryDx=0;entryDy=0;" parent="WIyWlLk6GJQsqaUBKTNV-1" edge="1">
          <mxGeometry width="50" height="50" relative="1" as="geometry">
            <mxPoint x="480" y="-726" as="sourcePoint" />
            <mxPoint x="480" y="-846" as="targetPoint" />
          </mxGeometry>
        </mxCell>
        <mxCell id="s32Tm8xTcJiPgJSjNKc--46" value="" style="endArrow=none;html=1;rounded=0;" parent="WIyWlLk6GJQsqaUBKTNV-1" edge="1">
          <mxGeometry width="50" height="50" relative="1" as="geometry">
            <mxPoint x="480" y="-400" as="sourcePoint" />
            <mxPoint x="480" y="-726" as="targetPoint" />
          </mxGeometry>
        </mxCell>
        <mxCell id="s32Tm8xTcJiPgJSjNKc--47" value="" style="endArrow=classic;html=1;rounded=0;" parent="WIyWlLk6GJQsqaUBKTNV-1" edge="1">
          <mxGeometry width="50" height="50" relative="1" as="geometry">
            <mxPoint x="480" y="-400" as="sourcePoint" />
            <mxPoint x="160" y="-400" as="targetPoint" />
          </mxGeometry>
        </mxCell>
        <mxCell id="s32Tm8xTcJiPgJSjNKc--48" value="Yes&lt;br&gt;" style="text;html=1;align=center;verticalAlign=middle;resizable=0;points=[];autosize=1;strokeColor=none;fillColor=none;" parent="WIyWlLk6GJQsqaUBKTNV-1" vertex="1">
          <mxGeometry x="160" y="-962" width="40" height="30" as="geometry" />
        </mxCell>
        <mxCell id="s32Tm8xTcJiPgJSjNKc--49" value="No" style="text;html=1;align=center;verticalAlign=middle;resizable=0;points=[];autosize=1;strokeColor=none;fillColor=none;" parent="WIyWlLk6GJQsqaUBKTNV-1" vertex="1">
          <mxGeometry x="220" y="-1032" width="40" height="30" as="geometry" />
        </mxCell>
        <mxCell id="s32Tm8xTcJiPgJSjNKc--50" value="Yaes" style="text;html=1;align=center;verticalAlign=middle;resizable=0;points=[];autosize=1;strokeColor=none;fillColor=none;" parent="WIyWlLk6GJQsqaUBKTNV-1" vertex="1">
          <mxGeometry x="155" y="-682" width="50" height="30" as="geometry" />
        </mxCell>
        <mxCell id="s32Tm8xTcJiPgJSjNKc--51" value="No" style="text;html=1;align=center;verticalAlign=middle;resizable=0;points=[];autosize=1;strokeColor=none;fillColor=none;" parent="WIyWlLk6GJQsqaUBKTNV-1" vertex="1">
          <mxGeometry x="220" y="-762" width="40" height="30" as="geometry" />
        </mxCell>
        <mxCell id="lluZ5RmbZSSxgCh2yDnl-0" value="&lt;h1 style=&quot;font-size: 15px;&quot;&gt;&lt;font style=&quot;font-size: 15px;&quot;&gt;Flow Chart Studi Kasus Masalah Pada Mahasiswa&amp;nbsp; Mengambil Mata Kuliah dengan Nilai IPK tertentu&lt;/font&gt;&lt;/h1&gt;&lt;p style=&quot;font-size: 15px;&quot;&gt;&lt;br&gt;&lt;/p&gt;" style="text;html=1;strokeColor=none;fillColor=none;spacing=5;spacingTop=-20;whiteSpace=wrap;overflow=hidden;rounded=0;" parent="WIyWlLk6GJQsqaUBKTNV-1" vertex="1">
          <mxGeometry x="70" y="-1590" width="570" height="120" as="geometry" />
        </mxCell>
        <mxCell id="WiA2aia0PaYZAGRsGLNB-0" value="" style="edgeStyle=orthogonalEdgeStyle;rounded=0;orthogonalLoop=1;jettySize=auto;html=1;" edge="1" parent="WIyWlLk6GJQsqaUBKTNV-1" source="WiA2aia0PaYZAGRsGLNB-1" target="WiA2aia0PaYZAGRsGLNB-3">
          <mxGeometry relative="1" as="geometry" />
        </mxCell>
        <mxCell id="WiA2aia0PaYZAGRsGLNB-1" value="MULAI" style="strokeWidth=2;html=1;shape=mxgraph.flowchart.terminator;whiteSpace=wrap;" vertex="1" parent="WIyWlLk6GJQsqaUBKTNV-1">
          <mxGeometry x="777.5" y="-1382" width="90" height="40" as="geometry" />
        </mxCell>
        <mxCell id="WiA2aia0PaYZAGRsGLNB-2" value="" style="edgeStyle=orthogonalEdgeStyle;rounded=0;orthogonalLoop=1;jettySize=auto;html=1;" edge="1" parent="WIyWlLk6GJQsqaUBKTNV-1" source="WiA2aia0PaYZAGRsGLNB-3" target="WiA2aia0PaYZAGRsGLNB-5">
          <mxGeometry relative="1" as="geometry" />
        </mxCell>
        <mxCell id="WiA2aia0PaYZAGRsGLNB-3" value="&lt;meta charset=&quot;utf-8&quot;&gt;&lt;span style=&quot;color: rgb(0, 0, 0); font-family: Helvetica; font-size: 12px; font-style: normal; font-variant-ligatures: normal; font-variant-caps: normal; font-weight: 400; letter-spacing: normal; orphans: 2; text-align: center; text-indent: 0px; text-transform: none; widows: 2; word-spacing: 0px; -webkit-text-stroke-width: 0px; background-color: rgb(251, 251, 251); text-decoration-thickness: initial; text-decoration-style: initial; text-decoration-color: initial; float: none; display: inline !important;&quot;&gt;Permasalahan Aziz dalam mengambil mata kuliah&lt;/span&gt;" style="whiteSpace=wrap;html=1;strokeWidth=2;" vertex="1" parent="WIyWlLk6GJQsqaUBKTNV-1">
          <mxGeometry x="762.5" y="-1298" width="120" height="60" as="geometry" />
        </mxCell>
        <mxCell id="WiA2aia0PaYZAGRsGLNB-4" value="" style="edgeStyle=orthogonalEdgeStyle;rounded=0;orthogonalLoop=1;jettySize=auto;html=1;" edge="1" parent="WIyWlLk6GJQsqaUBKTNV-1" source="WiA2aia0PaYZAGRsGLNB-5" target="WiA2aia0PaYZAGRsGLNB-7">
          <mxGeometry relative="1" as="geometry" />
        </mxCell>
        <mxCell id="WiA2aia0PaYZAGRsGLNB-5" value="Aziz mempunyai&lt;br style=&quot;border-color: var(--border-color);&quot;&gt;nilai IPK 2.98" style="shape=parallelogram;perimeter=parallelogramPerimeter;whiteSpace=wrap;html=1;fixedSize=1;strokeWidth=2;" vertex="1" parent="WIyWlLk6GJQsqaUBKTNV-1">
          <mxGeometry x="762.5" y="-1178" width="120" height="60" as="geometry" />
        </mxCell>
        <mxCell id="WiA2aia0PaYZAGRsGLNB-6" value="" style="edgeStyle=orthogonalEdgeStyle;rounded=0;orthogonalLoop=1;jettySize=auto;html=1;" edge="1" parent="WIyWlLk6GJQsqaUBKTNV-1" source="WiA2aia0PaYZAGRsGLNB-7" target="WiA2aia0PaYZAGRsGLNB-11">
          <mxGeometry relative="1" as="geometry" />
        </mxCell>
        <mxCell id="WiA2aia0PaYZAGRsGLNB-7" value="&amp;nbsp;IPK aziz &amp;lt; 3.0" style="rhombus;whiteSpace=wrap;html=1;strokeWidth=2;" vertex="1" parent="WIyWlLk6GJQsqaUBKTNV-1">
          <mxGeometry x="762.5" y="-1058" width="120" height="100" as="geometry" />
        </mxCell>
        <mxCell id="WiA2aia0PaYZAGRsGLNB-8" value="MULAI" style="strokeWidth=2;html=1;shape=mxgraph.flowchart.terminator;whiteSpace=wrap;" vertex="1" parent="WIyWlLk6GJQsqaUBKTNV-1">
          <mxGeometry x="777.5" y="-1382" width="90" height="40" as="geometry" />
        </mxCell>
        <mxCell id="WiA2aia0PaYZAGRsGLNB-9" value="END" style="strokeWidth=2;html=1;shape=mxgraph.flowchart.terminator;whiteSpace=wrap;" vertex="1" parent="WIyWlLk6GJQsqaUBKTNV-1">
          <mxGeometry x="775" y="-692" width="90" height="40" as="geometry" />
        </mxCell>
        <mxCell id="WiA2aia0PaYZAGRsGLNB-10" style="edgeStyle=orthogonalEdgeStyle;rounded=0;orthogonalLoop=1;jettySize=auto;html=1;entryX=0.5;entryY=0;entryDx=0;entryDy=0;" edge="1" parent="WIyWlLk6GJQsqaUBKTNV-1" source="WiA2aia0PaYZAGRsGLNB-11" target="WiA2aia0PaYZAGRsGLNB-13">
          <mxGeometry relative="1" as="geometry" />
        </mxCell>
        <mxCell id="WiA2aia0PaYZAGRsGLNB-11" value="Dapat Mengambil 20 Sks" style="rounded=0;whiteSpace=wrap;html=1;" vertex="1" parent="WIyWlLk6GJQsqaUBKTNV-1">
          <mxGeometry x="762.5" y="-922" width="120" height="60" as="geometry" />
        </mxCell>
        <mxCell id="WiA2aia0PaYZAGRsGLNB-12" style="edgeStyle=orthogonalEdgeStyle;rounded=0;orthogonalLoop=1;jettySize=auto;html=1;" edge="1" parent="WIyWlLk6GJQsqaUBKTNV-1" source="WiA2aia0PaYZAGRsGLNB-13">
          <mxGeometry relative="1" as="geometry">
            <mxPoint x="822.5" y="-692" as="targetPoint" />
          </mxGeometry>
        </mxCell>
        <mxCell id="WiA2aia0PaYZAGRsGLNB-13" value="Aziz mengambil mata kuliah yg di ulang" style="rounded=0;whiteSpace=wrap;html=1;" vertex="1" parent="WIyWlLk6GJQsqaUBKTNV-1">
          <mxGeometry x="762.5" y="-802" width="120" height="60" as="geometry" />
        </mxCell>
        <mxCell id="WiA2aia0PaYZAGRsGLNB-14" value="Dapat Mengambil Mata Kuliah Wajib" style="rounded=0;whiteSpace=wrap;html=1;" vertex="1" parent="WIyWlLk6GJQsqaUBKTNV-1">
          <mxGeometry x="992.5" y="-1038" width="120" height="60" as="geometry" />
        </mxCell>
        <mxCell id="WiA2aia0PaYZAGRsGLNB-15" value="" style="endArrow=classic;html=1;rounded=0;entryX=0;entryY=0.5;entryDx=0;entryDy=0;" edge="1" parent="WIyWlLk6GJQsqaUBKTNV-1" target="WiA2aia0PaYZAGRsGLNB-14">
          <mxGeometry width="50" height="50" relative="1" as="geometry">
            <mxPoint x="882.5" y="-1008" as="sourcePoint" />
            <mxPoint x="932.5" y="-1058" as="targetPoint" />
          </mxGeometry>
        </mxCell>
        <mxCell id="WiA2aia0PaYZAGRsGLNB-16" value="Yes" style="text;html=1;align=center;verticalAlign=middle;resizable=0;points=[];autosize=1;strokeColor=none;fillColor=none;" vertex="1" parent="WIyWlLk6GJQsqaUBKTNV-1">
          <mxGeometry x="832.5" y="-967" width="40" height="30" as="geometry" />
        </mxCell>
        <mxCell id="WiA2aia0PaYZAGRsGLNB-17" value="No" style="text;html=1;align=center;verticalAlign=middle;resizable=0;points=[];autosize=1;strokeColor=none;fillColor=none;" vertex="1" parent="WIyWlLk6GJQsqaUBKTNV-1">
          <mxGeometry x="872.5" y="-1034" width="40" height="30" as="geometry" />
        </mxCell>
        <mxCell id="WiA2aia0PaYZAGRsGLNB-18" value="" style="endArrow=none;html=1;rounded=0;" edge="1" parent="WIyWlLk6GJQsqaUBKTNV-1">
          <mxGeometry width="50" height="50" relative="1" as="geometry">
            <mxPoint x="1052.5" y="-712" as="sourcePoint" />
            <mxPoint x="1052.5" y="-977" as="targetPoint" />
          </mxGeometry>
        </mxCell>
        <mxCell id="WiA2aia0PaYZAGRsGLNB-19" value="" style="endArrow=classic;html=1;rounded=0;" edge="1" parent="WIyWlLk6GJQsqaUBKTNV-1">
          <mxGeometry width="50" height="50" relative="1" as="geometry">
            <mxPoint x="1052.5" y="-712" as="sourcePoint" />
            <mxPoint x="822.5" y="-712" as="targetPoint" />
          </mxGeometry>
        </mxCell>
        <mxCell id="WiA2aia0PaYZAGRsGLNB-23" value="&lt;font style=&quot;font-size: 14px;&quot;&gt;Penyeselaian 1&lt;/font&gt;" style="text;html=1;strokeColor=none;fillColor=none;align=center;verticalAlign=middle;whiteSpace=wrap;rounded=0;" vertex="1" parent="WIyWlLk6GJQsqaUBKTNV-1">
          <mxGeometry x="100" y="-1430" width="140" height="30" as="geometry" />
        </mxCell>
        <mxCell id="WiA2aia0PaYZAGRsGLNB-24" value="&lt;font style=&quot;font-size: 14px;&quot;&gt;Penyeselaian 2&lt;/font&gt;" style="text;html=1;strokeColor=none;fillColor=none;align=center;verticalAlign=middle;whiteSpace=wrap;rounded=0;" vertex="1" parent="WIyWlLk6GJQsqaUBKTNV-1">
          <mxGeometry x="760" y="-1432" width="140" height="30" as="geometry" />
        </mxCell>
      </root>
    </mxGraphModel>
  </diagram>
  <diagram id="Y2Cu2JbPrkr9WR6cSG1d" name="Page-2">
    <mxGraphModel dx="2187" dy="1338" grid="1" gridSize="10" guides="1" tooltips="1" connect="1" arrows="1" fold="1" page="1" pageScale="1" pageWidth="850" pageHeight="1100" math="0" shadow="0">
      <root>
        <mxCell id="0" />
        <mxCell id="1" parent="0" />
        <mxCell id="Z-kmlPZb-_eGGyk9oHyR-1" value="" style="edgeStyle=orthogonalEdgeStyle;rounded=0;orthogonalLoop=1;jettySize=auto;html=1;" parent="1" source="Z-kmlPZb-_eGGyk9oHyR-2" target="Z-kmlPZb-_eGGyk9oHyR-4" edge="1">
          <mxGeometry relative="1" as="geometry" />
        </mxCell>
        <mxCell id="Z-kmlPZb-_eGGyk9oHyR-2" value="MULAI" style="strokeWidth=2;html=1;shape=mxgraph.flowchart.terminator;whiteSpace=wrap;" parent="1" vertex="1">
          <mxGeometry x="395" y="120" width="90" height="40" as="geometry" />
        </mxCell>
        <mxCell id="Z-kmlPZb-_eGGyk9oHyR-3" value="" style="edgeStyle=orthogonalEdgeStyle;rounded=0;orthogonalLoop=1;jettySize=auto;html=1;" parent="1" source="Z-kmlPZb-_eGGyk9oHyR-4" target="Z-kmlPZb-_eGGyk9oHyR-6" edge="1">
          <mxGeometry relative="1" as="geometry" />
        </mxCell>
        <mxCell id="Z-kmlPZb-_eGGyk9oHyR-4" value="&lt;meta charset=&quot;utf-8&quot;&gt;&lt;span style=&quot;color: rgb(0, 0, 0); font-family: Helvetica; font-size: 12px; font-style: normal; font-variant-ligatures: normal; font-variant-caps: normal; font-weight: 400; letter-spacing: normal; orphans: 2; text-align: center; text-indent: 0px; text-transform: none; widows: 2; word-spacing: 0px; -webkit-text-stroke-width: 0px; background-color: rgb(251, 251, 251); text-decoration-thickness: initial; text-decoration-style: initial; text-decoration-color: initial; float: none; display: inline !important;&quot;&gt;Permasalahan Aziz dalam mengambil mata kuliah&lt;/span&gt;" style="whiteSpace=wrap;html=1;strokeWidth=2;" parent="1" vertex="1">
          <mxGeometry x="380" y="204" width="120" height="60" as="geometry" />
        </mxCell>
        <mxCell id="Z-kmlPZb-_eGGyk9oHyR-5" value="" style="edgeStyle=orthogonalEdgeStyle;rounded=0;orthogonalLoop=1;jettySize=auto;html=1;" parent="1" source="Z-kmlPZb-_eGGyk9oHyR-6" target="Z-kmlPZb-_eGGyk9oHyR-7" edge="1">
          <mxGeometry relative="1" as="geometry" />
        </mxCell>
        <mxCell id="Z-kmlPZb-_eGGyk9oHyR-6" value="Aziz mempunyai&lt;br style=&quot;border-color: var(--border-color);&quot;&gt;nilai IPK 2.98" style="shape=parallelogram;perimeter=parallelogramPerimeter;whiteSpace=wrap;html=1;fixedSize=1;strokeWidth=2;" parent="1" vertex="1">
          <mxGeometry x="380" y="324" width="120" height="60" as="geometry" />
        </mxCell>
        <mxCell id="Mb3_L9JyR4gmVDj5NuBt-6" value="" style="edgeStyle=orthogonalEdgeStyle;rounded=0;orthogonalLoop=1;jettySize=auto;html=1;" parent="1" source="Z-kmlPZb-_eGGyk9oHyR-7" target="Mb3_L9JyR4gmVDj5NuBt-3" edge="1">
          <mxGeometry relative="1" as="geometry" />
        </mxCell>
        <mxCell id="Z-kmlPZb-_eGGyk9oHyR-7" value="&amp;nbsp;IPK aziz &amp;lt; 3.0" style="rhombus;whiteSpace=wrap;html=1;strokeWidth=2;" parent="1" vertex="1">
          <mxGeometry x="380" y="444" width="120" height="100" as="geometry" />
        </mxCell>
        <mxCell id="Z-kmlPZb-_eGGyk9oHyR-8" value="MULAI" style="strokeWidth=2;html=1;shape=mxgraph.flowchart.terminator;whiteSpace=wrap;" parent="1" vertex="1">
          <mxGeometry x="395" y="120" width="90" height="40" as="geometry" />
        </mxCell>
        <mxCell id="OVDmUk-x6eYq_e_g-cXy-1" value="&lt;h1 style=&quot;font-size: 17px;&quot;&gt;&lt;font style=&quot;font-size: 17px;&quot;&gt;Flow Chart Studi Kasus Masalah Pada Mahasiswa&amp;nbsp; Mengambil Mata Kuliah dengan Nilai IPK tertentu&lt;/font&gt;&lt;/h1&gt;&lt;p style=&quot;font-size: 17px;&quot;&gt;&lt;br&gt;&lt;/p&gt;" style="text;html=1;strokeColor=none;fillColor=none;spacing=5;spacingTop=-20;whiteSpace=wrap;overflow=hidden;rounded=0;" parent="1" vertex="1">
          <mxGeometry x="30" y="30" width="460" height="120" as="geometry" />
        </mxCell>
        <mxCell id="Mb3_L9JyR4gmVDj5NuBt-1" value="END" style="strokeWidth=2;html=1;shape=mxgraph.flowchart.terminator;whiteSpace=wrap;" parent="1" vertex="1">
          <mxGeometry x="392.5" y="810" width="90" height="40" as="geometry" />
        </mxCell>
        <mxCell id="Mb3_L9JyR4gmVDj5NuBt-2" style="edgeStyle=orthogonalEdgeStyle;rounded=0;orthogonalLoop=1;jettySize=auto;html=1;entryX=0.5;entryY=0;entryDx=0;entryDy=0;" parent="1" source="Mb3_L9JyR4gmVDj5NuBt-3" target="Mb3_L9JyR4gmVDj5NuBt-5" edge="1">
          <mxGeometry relative="1" as="geometry" />
        </mxCell>
        <mxCell id="Mb3_L9JyR4gmVDj5NuBt-3" value="Dapat Mengambil 20 Sks" style="rounded=0;whiteSpace=wrap;html=1;" parent="1" vertex="1">
          <mxGeometry x="380" y="580" width="120" height="60" as="geometry" />
        </mxCell>
        <mxCell id="Mb3_L9JyR4gmVDj5NuBt-4" style="edgeStyle=orthogonalEdgeStyle;rounded=0;orthogonalLoop=1;jettySize=auto;html=1;" parent="1" source="Mb3_L9JyR4gmVDj5NuBt-5" edge="1">
          <mxGeometry relative="1" as="geometry">
            <mxPoint x="440" y="810" as="targetPoint" />
          </mxGeometry>
        </mxCell>
        <mxCell id="Mb3_L9JyR4gmVDj5NuBt-5" value="Aziz mengambil mata kuliah yg di ulang" style="rounded=0;whiteSpace=wrap;html=1;" parent="1" vertex="1">
          <mxGeometry x="380" y="700" width="120" height="60" as="geometry" />
        </mxCell>
        <mxCell id="GR1V2fM72-D3WIF3KxtH-1" value="Dapat Mengambil Mata Kuliah Wajib" style="rounded=0;whiteSpace=wrap;html=1;" parent="1" vertex="1">
          <mxGeometry x="610" y="464" width="120" height="60" as="geometry" />
        </mxCell>
        <mxCell id="GR1V2fM72-D3WIF3KxtH-2" value="" style="endArrow=classic;html=1;rounded=0;entryX=0;entryY=0.5;entryDx=0;entryDy=0;" parent="1" target="GR1V2fM72-D3WIF3KxtH-1" edge="1">
          <mxGeometry width="50" height="50" relative="1" as="geometry">
            <mxPoint x="500" y="494" as="sourcePoint" />
            <mxPoint x="550" y="444" as="targetPoint" />
          </mxGeometry>
        </mxCell>
        <mxCell id="GR1V2fM72-D3WIF3KxtH-3" value="Yes" style="text;html=1;align=center;verticalAlign=middle;resizable=0;points=[];autosize=1;strokeColor=none;fillColor=none;" parent="1" vertex="1">
          <mxGeometry x="450" y="535" width="40" height="30" as="geometry" />
        </mxCell>
        <mxCell id="GR1V2fM72-D3WIF3KxtH-4" value="No" style="text;html=1;align=center;verticalAlign=middle;resizable=0;points=[];autosize=1;strokeColor=none;fillColor=none;" parent="1" vertex="1">
          <mxGeometry x="490" y="468" width="40" height="30" as="geometry" />
        </mxCell>
        <mxCell id="GR1V2fM72-D3WIF3KxtH-5" value="" style="endArrow=none;html=1;rounded=0;" parent="1" edge="1">
          <mxGeometry width="50" height="50" relative="1" as="geometry">
            <mxPoint x="670" y="790" as="sourcePoint" />
            <mxPoint x="670" y="525" as="targetPoint" />
          </mxGeometry>
        </mxCell>
        <mxCell id="GR1V2fM72-D3WIF3KxtH-6" value="" style="endArrow=classic;html=1;rounded=0;" parent="1" edge="1">
          <mxGeometry width="50" height="50" relative="1" as="geometry">
            <mxPoint x="670" y="790" as="sourcePoint" />
            <mxPoint x="440" y="790" as="targetPoint" />
          </mxGeometry>
        </mxCell>
      </root>
    </mxGraphModel>
  </diagram>
</mxfile>
